<svg width="30" height="16" viewBox="0 0 30 16" fill="none" xmlns="http://www.w3.org/2000/svg">
<path d="M0.937476 2.37568H29.0624C29.58 2.37568 29.9999 1.95565 29.9999 1.43821C29.9999 0.920688 29.5799 0.500732 29.0624 0.500732H0.937476C0.419955 0.500732 0 0.920766 0 1.43821C0 1.95565 0.420033 2.37568 0.937476 2.37568Z" fill="#434343"/>
<path class="line line2" d="M29.0624 7.0625H0.937476C0.419955 7.0625 0 7.48253 0 7.99997C0 8.51741 0.420033 8.93744 0.937476 8.93744H29.0624C29.58 8.93744 29.9999 8.51741 29.9999 7.99997C29.9999 7.48253 29.58 7.0625 29.0624 7.0625Z" fill="#434343"/>
<path class="line line2" d="M29.0625 13.626H10.3125C9.79495 13.626 9.375 14.046 9.375 14.5635C9.375 15.081 9.79503 15.5009 10.3125 15.5009H29.0625C29.58 15.5009 29.9999 15.0809 29.9999 14.5635C30 14.0459 29.58 13.626 29.0625 13.626Z" fill="#434343"/>
</svg>
 
